<svg width="800" height="520" viewBox="0 0 800 520" fill="none" xmlns="http://www.w3.org/2000/svg">
  <rect width="800" height="520" rx="36" fill="#EEF2FF"/>
  <rect x="216" y="96" width="360" height="328" rx="34" transform="rotate(-8 216 96)" fill="#FFFFFF"/>
  <rect x="248" y="130" width="296" height="152" rx="28" transform="rotate(-8 248 130)" fill="url(#paint0_linear)"/>
  <rect x="276" y="178" width="84" height="12" rx="6" transform="rotate(-8 276 178)" fill="white" fill-opacity="0.45"/>
  <rect x="276" y="202" width="116" height="12" rx="6" transform="rotate(-8 276 202)" fill="white" fill-opacity="0.45"/>
  <rect x="278" y="308" width="124" height="12" rx="6" transform="rotate(-8 278 308)" fill="#CBD5E1"/>
  <rect x="278" y="333" width="178" height="18" rx="9" transform="rotate(-8 278 333)" fill="#0F172A"/>
  <rect x="278" y="365" width="194" height="12" rx="6" transform="rotate(-8 278 365)" fill="#94A3B8"/>
  <defs>
    <linearGradient id="paint0_linear" x1="396" y1="130" x2="396" y2="282" gradientUnits="userSpaceOnUse">
      <stop stop-color="#C7D2FE"/>
      <stop offset="1" stop-color="#EDE9FE"/>
    </linearGradient>
  </defs>
</svg>
